<?xml version="1.0" standalone="no"?>
<!DOCTYPE svg PUBLIC "-//W3C//DTD SVG 20010904//EN"
 "http://www.w3.org/TR/2001/REC-SVG-20010904/DTD/svg10.dtd">
<svg version="1.0" xmlns="http://www.w3.org/2000/svg"
 width="300.000000pt" height="300.000000pt" viewBox="0 0 300.000000 300.000000"
 preserveAspectRatio="xMidYMid meet">
<metadata>
Created by potrace 1.10, written by Peter Selinger 2001-2011
</metadata>
<g transform="translate(0.000000,300.000000) scale(0.100000,-0.100000)"
fill="#000000" stroke="none">
<path d="M1297 2834 c-118 -18 -223 -48 -332 -95 l-90 -39 -287 0 -288 0 0
-287 0 -288 -39 -90 c-48 -113 -77 -213 -96 -340 -37 -244 -3 -500 96 -730
l39 -90 0 -287 0 -288 288 0 287 0 90 -39 c342 -147 728 -147 1070 0 l90 39
288 0 287 0 0 288 0 287 39 90 c147 342 147 728 0 1070 l-39 90 0 288 0 287
-287 0 -288 0 -90 39 c-229 99 -495 133 -738 95z m-657 -287 c0 -1 -43 -45
-95 -97 l-95 -95 0 98 0 97 95 0 c52 0 95 -1 95 -3z m1910 -94 l0 -97 -95 94
c-52 52 -95 96 -95 98 0 1 43 2 95 2 l95 0 0 -97z m-878 -282 c309 -79 518
-350 518 -671 0 -388 -302 -690 -690 -690 -388 0 -690 302 -690 690 0 319 208
590 514 670 98 26 249 26 348 1z m-1122 -1626 l95 -95 -98 0 -97 0 0 95 c0 52
1 95 3 95 1 0 45 -43 97 -95z m2000 0 l0 -95 -97 0 -98 0 95 95 c52 52 96 95
97 95 2 0 3 -43 3 -95z"/>
</g>
</svg>
